# xmcd
#
# Track frame offsets:
#	150
#	12375
#	31050
#	45830
#	67020
#	82535
#
# Disc length: 1389 seconds
#
# Revision: 1
# Processed by: cddbd v1.5.2PL0 Copyright (c) Steve Scherf et al.
# Submitted via: audiograbber 1.83.01
#
DISCID=35056b06
DTITLE=Bill Murray - Haunting Dreams Bill Murray
DYEAR=1900
DGENRE=
TTITLE0=Haunting Dreams
TTITLE1=Blues Again Today
TTITLE2=Yodler´s Walz
TTITLE3=Loving You
TTITLE4=Dixie´s Been Hell On Me
TTITLE5=Honey, I Love You
EXTD=
EXTT0=
EXTT1=
EXTT2=
EXTT3=
EXTT4=
EXTT5=
PLAYORDER=
